<svg xmlns="http://www.w3.org/2000/svg" version="1.1" xmlns:xlink="http://www.w3.org/1999/xlink" xmlns:svgjs="http://svgjs.dev/svgjs" width="1000" height="1000" viewBox="0 0 1000 1000"><rect width="1000" height="1000" fill="#000000"></rect><g transform="matrix(0.7,0,0,0.7,149.57575757575756,282.1265587044535)"><svg viewBox="0 0 396 247" data-background-color="#000000" preserveAspectRatio="xMidYMid meet" height="623" width="1000" xmlns="http://www.w3.org/2000/svg" xmlns:xlink="http://www.w3.org/1999/xlink"><g id="tight-bounds" transform="matrix(1,0,0,1,0.2400000000000091,-0.09999999999999432)"><svg viewBox="0 0 395.52 247.2" height="247.2" width="395.52"><g><svg></svg></g><g><svg viewBox="0 0 395.52 247.2" height="247.2" width="395.52"><g transform="matrix(1,0,0,1,75.54432,81.71914668762852)"><svg viewBox="0 0 244.43135999999998 83.76170662474293" height="83.76170662474293" width="244.43135999999998"><g><svg viewBox="0 0 373.54783794566345 128.00732447878895" height="83.76170662474293" width="244.43135999999998"><g transform="matrix(1,0,0,1,129.1164779456635,47.70530159783743)"><svg viewBox="0 0 244.43135999999998 32.59672128311407" height="32.59672128311407" width="244.43135999999998"><g id="textblocktransform"><svg viewBox="0 0 244.43135999999998 32.59672128311407" height="32.59672128311407" width="244.43135999999998" id="textblock"><g><svg viewBox="0 0 244.43135999999998 32.59672128311407" height="32.59672128311407" width="244.43135999999998"><g transform="matrix(1,0,0,1,0,0)"><svg width="244.43135999999998" viewBox="3.55 -36.5 277.43 37" height="32.59672128311407" data-palette-color="#0718c4"><path d="M16.95 0.5L16.95 0.5Q13.9 0.5 11.4-1 8.9-2.5 7.45-4.9L7.45-4.9 7.45 0 3.55 0 3.55-36.5 7.95-36.5 7.95-20.9Q9.6-23.45 12-25 14.4-26.55 17.6-26.55L17.6-26.55Q20.3-26.55 22.45-25.43 24.6-24.3 26.13-22.38 27.65-20.45 28.48-18.03 29.3-15.6 29.3-12.95L29.3-12.95Q29.3-10.2 28.38-7.78 27.45-5.35 25.75-3.48 24.05-1.6 21.83-0.55 19.6 0.5 16.95 0.5ZM15.85-3.3L15.85-3.3Q17.8-3.3 19.45-4.1 21.1-4.9 22.3-6.25 23.5-7.6 24.15-9.35 24.8-11.1 24.8-12.95L24.8-12.95Q24.8-15.5 23.73-17.75 22.65-20 20.73-21.38 18.8-22.75 16.25-22.75L16.25-22.75Q14.4-22.75 12.8-21.9 11.2-21.05 9.98-19.68 8.75-18.3 7.95-16.65L7.95-16.65 7.95-9.1Q8.2-7.85 9-6.8 9.8-5.75 10.95-4.98 12.1-4.2 13.38-3.75 14.65-3.3 15.85-3.3ZM46.1 0.5L46.1 0.5Q43.15 0.5 40.75-0.58 38.35-1.65 36.6-3.53 34.85-5.4 33.9-7.85 32.95-10.3 32.95-13L32.95-13Q32.95-15.75 33.9-18.2 34.85-20.65 36.6-22.53 38.35-24.4 40.77-25.48 43.2-26.55 46.15-26.55L46.15-26.55Q49.05-26.55 51.45-25.48 53.85-24.4 55.62-22.53 57.4-20.65 58.35-18.2 59.3-15.75 59.3-13L59.3-13Q59.3-10.3 58.35-7.85 57.4-5.4 55.65-3.53 53.9-1.65 51.47-0.58 49.05 0.5 46.1 0.5ZM37.45-12.95L37.45-12.95Q37.45-10.25 38.62-8.05 39.8-5.85 41.75-4.58 43.7-3.3 46.1-3.3L46.1-3.3Q48.5-3.3 50.47-4.6 52.45-5.9 53.62-8.13 54.8-10.35 54.8-13.05L54.8-13.05Q54.8-15.75 53.62-17.95 52.45-20.15 50.47-21.45 48.5-22.75 46.1-22.75L46.1-22.75Q43.7-22.75 41.75-21.43 39.8-20.1 38.62-17.9 37.45-15.7 37.45-12.95ZM76.7-4.8L77.75-1.3Q77.2-1.05 76.25-0.65 75.3-0.25 74.05 0.05 72.8 0.35 71.4 0.35L71.4 0.35Q69.8 0.35 68.45-0.23 67.1-0.8 66.3-2.02 65.5-3.25 65.5-5.1L65.5-5.1 65.5-22.65 61.95-22.65 61.95-26.1 65.5-26.1 65.5-34.8 69.9-34.8 69.9-26.1 75.75-26.1 75.75-22.65 69.9-22.65 69.9-6.45Q70-5.05 70.85-4.38 71.7-3.7 72.85-3.7L72.85-3.7Q74.15-3.7 75.25-4.15 76.35-4.6 76.7-4.8L76.7-4.8ZM94.29-4.8L95.34-1.3Q94.79-1.05 93.84-0.65 92.89-0.25 91.64 0.05 90.39 0.35 88.99 0.35L88.99 0.35Q87.39 0.35 86.04-0.23 84.69-0.8 83.89-2.02 83.09-3.25 83.09-5.1L83.09-5.1 83.09-22.65 79.54-22.65 79.54-26.1 83.09-26.1 83.09-34.8 87.49-34.8 87.49-26.1 93.34-26.1 93.34-22.65 87.49-22.65 87.49-6.45Q87.59-5.05 88.44-4.38 89.29-3.7 90.44-3.7L90.44-3.7Q91.74-3.7 92.84-4.15 93.94-4.6 94.29-4.8L94.29-4.8ZM110.49 0.5L110.49 0.5Q107.54 0.5 105.14-0.58 102.74-1.65 100.99-3.53 99.24-5.4 98.29-7.85 97.34-10.3 97.34-13L97.34-13Q97.34-15.75 98.29-18.2 99.24-20.65 100.99-22.53 102.74-24.4 105.17-25.48 107.59-26.55 110.54-26.55L110.54-26.55Q113.44-26.55 115.84-25.48 118.24-24.4 120.02-22.53 121.79-20.65 122.74-18.2 123.69-15.75 123.69-13L123.69-13Q123.69-10.3 122.74-7.85 121.79-5.4 120.04-3.53 118.29-1.65 115.87-0.58 113.44 0.5 110.49 0.5ZM101.84-12.95L101.84-12.95Q101.84-10.25 103.02-8.05 104.19-5.85 106.14-4.58 108.09-3.3 110.49-3.3L110.49-3.3Q112.89-3.3 114.87-4.6 116.84-5.9 118.02-8.13 119.19-10.35 119.19-13.05L119.19-13.05Q119.19-15.75 118.02-17.95 116.84-20.15 114.87-21.45 112.89-22.75 110.49-22.75L110.49-22.75Q108.09-22.75 106.14-21.43 104.19-20.1 103.02-17.9 101.84-15.7 101.84-12.95ZM137.99 0.5L137.99 0.5Q134.74 0.5 131.89-0.58 129.04-1.65 126.99-3.8L126.99-3.8 128.69-6.9Q130.94-4.8 133.19-3.9 135.44-3 137.79-3L137.79-3Q140.49-3 142.19-4.03 143.89-5.05 143.89-7.05L143.89-7.05Q143.89-8.5 143.01-9.2 142.14-9.9 140.54-10.38 138.94-10.85 136.74-11.45L136.74-11.45Q134.04-12.25 132.19-13.15 130.34-14.05 129.39-15.4 128.44-16.75 128.44-18.8L128.44-18.8Q128.44-21.3 129.74-23.03 131.04-24.75 133.31-25.65 135.59-26.55 138.49-26.55L138.49-26.55Q141.39-26.55 143.74-25.65 146.09-24.75 147.79-23L147.79-23 145.79-19.95Q144.24-21.55 142.39-22.33 140.54-23.1 138.24-23.1L138.24-23.1Q136.89-23.1 135.59-22.78 134.29-22.45 133.44-21.63 132.59-20.8 132.59-19.3L132.59-19.3Q132.59-18.05 133.26-17.32 133.94-16.6 135.26-16.1 136.59-15.6 138.49-15L138.49-15Q141.44-14.15 143.61-13.3 145.79-12.45 146.99-11.1 148.19-9.75 148.19-7.35L148.19-7.35Q148.19-3.65 145.39-1.58 142.59 0.5 137.99 0.5ZM176.69-4.35L185.64-26.1 189.89-26.1 178.79 0 174.94 0 169.89-12.3 164.89 0 161.04 0 149.94-26.1 154.14-26.1 163.14-4.35 167.34-15.05 162.94-26.05 166.79-26.05 169.89-17.75 172.99-26.05 176.84-26.05 172.49-15.05 176.69-4.35ZM204.48 0.5L204.48 0.5Q201.53 0.5 199.13-0.58 196.73-1.65 194.98-3.53 193.23-5.4 192.28-7.85 191.33-10.3 191.33-13L191.33-13Q191.33-15.75 192.28-18.2 193.23-20.65 194.98-22.53 196.73-24.4 199.16-25.48 201.58-26.55 204.53-26.55L204.53-26.55Q207.43-26.55 209.83-25.48 212.23-24.4 214.01-22.53 215.78-20.65 216.73-18.2 217.68-15.75 217.68-13L217.68-13Q217.68-10.3 216.73-7.85 215.78-5.4 214.03-3.53 212.28-1.65 209.86-0.58 207.43 0.5 204.48 0.5ZM195.83-12.95L195.83-12.95Q195.83-10.25 197.01-8.05 198.18-5.85 200.13-4.58 202.08-3.3 204.48-3.3L204.48-3.3Q206.88-3.3 208.86-4.6 210.83-5.9 212.01-8.13 213.18-10.35 213.18-13.05L213.18-13.05Q213.18-15.75 212.01-17.95 210.83-20.15 208.86-21.45 206.88-22.75 204.48-22.75L204.48-22.75Q202.08-22.75 200.13-21.43 198.18-20.1 197.01-17.9 195.83-15.7 195.83-12.95ZM236.83-26.25L236.83-22.25Q233.53-22.2 231.01-20.58 228.48-18.95 227.43-16.1L227.43-16.1 227.43 0 223.03 0 223.03-26.1 227.13-26.1 227.13-20.05Q228.48-22.75 230.71-24.43 232.93-26.1 235.38-26.3L235.38-26.3Q235.88-26.3 236.23-26.3 236.58-26.3 236.83-26.25L236.83-26.25ZM241.28-5.15L241.28-36.5 245.68-36.5 245.68-6.75Q245.68-4.6 246.28-4.1 246.88-3.6 247.73-3.6L247.73-3.6Q248.78-3.6 249.73-3.83 250.68-4.05 251.33-4.3L251.33-4.3 252.03-0.7Q250.93-0.25 249.43 0.05 247.93 0.35 246.78 0.35L246.78 0.35Q244.23 0.35 242.75-1.1 241.28-2.55 241.28-5.15L241.28-5.15ZM253.78-13L253.78-13Q253.78-16.7 255.3-19.78 256.83-22.85 259.5-24.7 262.18-26.55 265.63-26.55L265.63-26.55Q268.78-26.55 271.28-24.9 273.78-23.25 275.18-20.9L275.18-20.9 275.18-36.5 279.58-36.5 279.58-5Q279.58-4.2 279.9-3.83 280.23-3.45 280.98-3.4L280.98-3.4 280.98 0Q279.73 0.2 279.03 0.2L279.03 0.2Q277.73 0.2 276.75-0.7 275.78-1.6 275.78-2.7L275.78-2.7 275.78-4.9Q274.23-2.4 271.63-0.95 269.03 0.5 266.23 0.5L266.23 0.5Q263.53 0.5 261.25-0.58 258.98-1.65 257.3-3.55 255.63-5.45 254.7-7.88 253.78-10.3 253.78-13ZM275.18-9.15L275.18-9.15 275.18-16.65Q274.58-18.35 273.23-19.73 271.88-21.1 270.2-21.93 268.53-22.75 266.88-22.75L266.88-22.75Q264.93-22.75 263.35-21.93 261.78-21.1 260.65-19.73 259.53-18.35 258.93-16.6 258.33-14.85 258.33-12.95L258.33-12.95Q258.33-11 259-9.25 259.68-7.5 260.9-6.15 262.13-4.8 263.75-4.05 265.38-3.3 267.28-3.3L267.28-3.3Q268.48-3.3 269.75-3.75 271.03-4.2 272.18-5 273.33-5.8 274.13-6.88 274.93-7.95 275.18-9.15Z" opacity="1" transform="matrix(1,0,0,1,0,0)" fill="#0718c4" class="wordmark-text-0" data-fill-palette-color="primary" id="text-0"></path></svg></g></svg></g></svg></g></svg></g><g><svg viewBox="0 0 121.42117437203106 128.00732447878895" height="128.00732447878895" width="121.42117437203106"><g><svg xmlns="http://www.w3.org/2000/svg" xmlns:xlink="http://www.w3.org/1999/xlink" version="1.1" x="0" y="0" viewBox="12 5.057 256 269.88599999999997" enable-background="new 0 0 280 280" xml:space="preserve" height="128.00732447878895" width="121.42117437203106" class="icon-icon-0" data-fill-palette-color="accent" id="icon-0"><g fill="#0718c4" data-fill-palette-color="accent"><path d="M147.541 19.171c-1.744-2.26-4.473-3.724-7.542-3.724s-5.795 1.464-7.541 3.724C65.375 23.088 12 78.896 12 146.943c0 70.58 57.419 128 127.999 128 70.579 0 128.001-57.42 128.001-128C268 78.896 214.623 23.088 147.541 19.171zM201.046 96.201c-2.988 0.058-5.99 0.73-8.765 1.973-1.913 0.851-3.697 1.987-5.347 3.303-4.336-2.47-8.944-4.429-13.675-5.953 3.784-2.37 6.094-5.307 6.094-8.788 0-1.366-0.375-2.713-1.057-4.022C187.116 85.968 194.843 90.473 201.046 96.201zM206.929 154.003c0.052-1.104 0.045-2.208-0.022-3.301-0.472-7.922-4.213-15.297-9.788-20.366-4.845-4.458-11.077-7.187-17.501-7.792 0.025-5.981 1.866-12.049 5.573-16.943 0.585-0.773 1.225-1.502 1.895-2.206 2.08 1.317 4.081 2.75 5.975 4.32 7.246 5.898 12.8 13.829 15.442 22.739 1.354 4.431 2.024 9.085 2.141 13.7 0.031 4.692-0.064 9.487-0.09 14.228l-0.128 14.255c0 2.417-0.026 4.634-0.327 6.926-0.282 2.269-0.76 4.508-1.434 6.687-1.989 6.541-5.815 12.378-10.683 17.221-1.602-0.428-3.15-1.024-4.611-1.777-2.938-1.508-5.519-3.625-7.589-6.126-2.604-3.129-4.365-6.848-5.242-10.731-0.02 0.003-0.039 0.005-0.059 0.008 6.117-0.762 12.01-3.418 16.63-7.674 5.572-5.079 9.304-12.422 9.774-20.383C206.943 155.867 206.956 154.937 206.929 154.003zM161.521 97.636c1.61-0.603 3.188-1.309 4.688-2.205 1.31-0.803 2.584-1.736 3.604-2.996 1.015-1.222 1.737-2.951 1.493-4.659-0.23-1.695-1.133-3.101-2.144-4.265-1.028-1.171-2.226-2.136-3.478-2.989-1.114-0.747-2.282-1.396-3.475-1.985 0.703-1.555 0.066-3.168-1.068-4.706 9.511 3.26 15.736 8.354 15.736 12.905C176.879 91.226 170.82 95.198 161.521 97.636zM157.362 97.22c-5.636 1.471-11.516 2.03-17.36 2.017-5.844 0.01-11.725-0.545-17.357-2.018-2.805-0.749-5.569-1.724-8.027-3.161-1.219-0.724-2.361-1.574-3.23-2.604-0.877-1.019-1.415-2.247-1.275-3.517 0.122-1.259 0.825-2.511 1.713-3.581 0.893-1.083 1.99-2.027 3.158-2.872 0.964-0.69 1.986-1.298 3.038-1.866 0.12 0.253 0.27 0.509 0.456 0.765 4.287 5.912 16.573 5.838 22.833 5.71 6.667-0.137 14.929-1.369 19.938-6.21 0.154-0.15 0.267-0.304 0.392-0.456 1.172 0.614 2.311 1.289 3.379 2.054 1.168 0.844 2.265 1.788 3.161 2.871 0.889 1.072 1.59 2.317 1.715 3.588 0.138 1.268-0.398 2.493-1.275 3.515-0.872 1.028-2.013 1.881-3.229 2.604C162.93 95.495 160.164 96.47 157.362 97.22zM169.512 39.248l-5.83 2.933 11.357 7.52-17.448-7.22 6.173-3.181-12.583-10.228L169.512 39.248zM139.999 17.92c3.893 0 7.06 3.166 7.06 7.059 0 3.891-3.167 7.057-7.06 7.057-3.892 0-7.058-3.166-7.058-7.057C132.941 21.086 136.107 17.92 139.999 17.92zM139.314 34.474c0.229 0.017 0.454 0.034 0.685 0.034 0.218 0 0.432-0.018 0.647-0.032-0.086 3.518 0.721 8.97 0.829 10.008 0.579 5.612 1.545 11.267 3.811 16.464 1.554 3.574 3.992 6.647 6.511 9.583 1.584 1.848 3.205 3.665 4.779 5.522 4.037 4.766-6.96 6.407-9.843 6.836-3.889 0.578-29.733-0.083-22.837-8.218 2.743-3.236 5.676-6.316 8.127-9.787C138.053 56.354 138.845 44.869 139.314 34.474zM110.488 39.248l18.332-10.176-12.584 10.228 6.173 3.181-17.446 7.22 11.356-7.52L110.488 39.248zM119.801 73.517c-1.385 1.597-2.395 3.301-2.099 5.063-1.163 0.578-2.302 1.212-3.39 1.942-1.254 0.853-2.449 1.818-3.479 2.99-1.012 1.167-1.914 2.566-2.143 4.273-0.242 1.707 0.482 3.433 1.495 4.656 1.024 1.257 2.297 2.192 3.607 2.994 1.495 0.892 3.065 1.596 4.668 2.196-9.288-2.438-15.34-6.407-15.34-10.895C103.122 82.037 109.76 76.756 119.801 73.517zM101.704 82.713c-0.681 1.31-1.055 2.657-1.055 4.023 0 3.481 2.31 6.42 6.095 8.79-4.732 1.525-9.339 3.484-13.678 5.955-1.651-1.318-3.434-2.456-5.35-3.307-2.772-1.242-5.774-1.916-8.762-1.973C85.158 90.473 92.885 85.967 101.704 82.713zM52.742 138.178c2.476-1.625 5.254-2.654 8.083-3.099v36.639c-0.595-0.094-1.192-0.209-1.79-0.356-2.204-0.547-4.345-1.47-6.293-2.743-3.898-2.528-7.01-6.529-8.33-11.263 0.604 4.871 3.156 9.575 7.009 12.977 1.921 1.709 4.155 3.105 6.583 4.107 0.936 0.392 1.925 0.705 2.928 0.974 0.049 0.773 0.134 1.531 0.219 2.288-13.168-1.67-23.361-12.401-23.361-25.363 0-12.998 10.253-23.748 23.473-25.371-0.176 1.451-0.292 2.927-0.359 4.423-3.539 0.966-6.821 2.696-9.479 5.073-3.854 3.402-6.407 8.106-7.011 12.976C45.732 144.707 48.844 140.707 52.742 138.178zM62.682 172.426V134.18c0-15.813 6.034-28.469 16.151-37.867 2.994 0.311 5.892 1.245 8.47 2.691 1.609 0.896 3.083 1.998 4.428 3.231-2.05 1.234-4.033 2.587-5.932 4.069-7.616 5.929-13.592 14.148-16.536 23.452-1.505 4.632-2.293 9.478-2.502 14.328-0.117 4.838-0.104 9.528-0.163 14.3L66.47 172.64c-0.05 2.335-0.015 4.88 0.289 7.308 0.29 2.448 0.793 4.877 1.509 7.242 1.428 4.736 3.729 9.194 6.662 13.147 0.983 1.33 2.057 2.581 3.166 3.799l0.09 0.097c2.176 2.376 4.548 4.56 7.088 6.512 1.831 1.402 3.735 2.69 5.691 3.889C74.17 205.419 62.682 191.038 62.682 172.426zM111.401 263.792v1.601c-4.13-0.994-8.208-2.2-12.222-3.633 2.86-4.591 7.271-8.242 12.222-10.785V263.792zM111.401 249.565c-2.961 1.243-5.8 2.837-8.37 4.833-2.341 1.824-4.436 4.009-6.146 6.509-3.49-1.326-6.934-2.811-10.322-4.47 5.698-6.153 14.847-10.21 24.839-11.097V249.565zM139.999 268.761c-7.037 0-13.965-0.583-20.755-1.744l20.757-14.99h0.001l20.757 14.989C153.967 268.177 147.038 268.761 139.999 268.761zM166.127 263.792l-26.125-16.954-26.127 16.954v-30.633-3.275l26.127 16.954v-0.001l16.127 4.833-8.734-4.832 8.736-4.834-16.123 4.829 26.119-16.949V263.792zM125.021 230.507c0-0.386 0.081-0.894 0.394-1.43-0.313-0.538-0.394-1.046-0.394-1.432 0-0.134 0.016-0.283 0.041-0.442 0.704 0.093 1.41 0.172 2.116 0.25-0.018 0.064-0.057 0.129-0.057 0.192 0 1.696 5.896 3.128 12.878 3.128 6.982 0 12.883-1.432 12.883-3.128 0-0.063-0.041-0.128-0.058-0.192 0.707-0.079 1.412-0.158 2.117-0.25 0.026 0.158 0.043 0.309 0.043 0.442 0 0.386-0.085 0.893-0.397 1.432 0.313 0.537 0.397 1.044 0.397 1.43 0 0.387-0.085 0.895-0.397 1.433 0.313 0.54 0.397 1.045 0.397 1.432 0 0.254-0.046 0.564-0.159 0.897l-2.184 1.417c-0.077-0.098-0.149-0.198-0.267-0.297-2.627 1.547-8.102 2.099-12.376 2.099s-9.745-0.552-12.371-2.099c-0.119 0.099-0.19 0.198-0.269 0.297l-2.182-1.417c-0.114-0.333-0.157-0.644-0.157-0.897 0-0.387 0.081-0.894 0.394-1.432C125.102 231.402 125.021 230.894 125.021 230.507zM129.925 227.733c3.358 0.296 6.726 0.455 10.074 0.455 3.351 0 6.72-0.159 10.079-0.455-2.861 0.841-6.816 1.166-10.079 1.166S132.786 228.574 129.925 227.733zM139.999 240.351c-1.893 0-4.015-0.118-6.026-0.373l-2.049-1.33c2.227 0.443 5.049 0.713 8.075 0.713 3.029 0 5.851-0.27 8.08-0.713l-2.05 1.329C144.016 240.232 141.894 240.351 139.999 240.351zM142.68 242.15l-1.609 1.046c-0.359 0.008-0.725 0.017-1.071 0.017-0.346 0-0.707-0.009-1.066-0.017l-1.61-1.044c0.868 0.046 1.762 0.071 2.677 0.071C140.915 242.224 141.811 242.198 142.68 242.15zM140 223.67c-9.339 0.021-18.699-1.159-27.687-3.66-8.963-2.514-17.619-6.359-24.993-11.945-1.721-1.295-3.362-2.704-4.908-4.206 1.565-0.288 3.111-0.72 4.6-1.321 3.186-1.279 6.115-3.249 8.576-5.72 3.224-3.219 5.584-7.303 6.929-11.738 0.245 0.008 0.487 0.019 0.731 0.018-0.75 0.003-1.497-0.042-2.246-0.097-0.163-0.015-0.33-0.022-0.495-0.038-0.401-0.042-0.805-0.093-1.204-0.152 0.072 0.01 0.143 0.025 0.216 0.035-0.021-0.003-0.04-0.006-0.061-0.009-0.876 3.883-2.639 7.603-5.243 10.731-2.067 2.501-4.649 4.618-7.587 6.126-1.462 0.753-3.012 1.35-4.614 1.777-4.867-4.842-8.692-10.678-10.684-17.218-0.674-2.179-1.149-4.42-1.436-6.687-0.299-2.292-0.323-4.51-0.33-6.927l-0.127-14.255c-0.025-4.734-0.12-9.549-0.091-14.214 0.118-4.644 0.788-9.278 2.143-13.715 2.644-8.912 8.199-16.84 15.442-22.742 1.895-1.572 3.897-3.004 5.979-4.322 0.671 0.705 1.313 1.435 1.897 2.209 3.709 4.894 5.547 10.963 5.577 16.944-6.426 0.606-12.655 3.338-17.495 7.795-5.571 5.08-9.304 12.422-9.773 20.384-0.059 0.905-0.069 1.821-0.046 2.742-0.05 1.117-0.048 2.233 0.023 3.341 0.471 7.921 4.214 15.298 9.787 20.365 4.57 4.201 10.376 6.836 16.412 7.635-6.012-0.906-11.677-3.904-15.687-8.357-1.028-1.126-1.926-2.352-2.737-3.626 0.041 0.045 0.078 0.092 0.12 0.138 5.575 6.104 13.829 9.788 22.308 9.736 4.086-0.011 8.352-0.858 12.154-2.546 3.827-1.672 7.28-4.145 10.074-7.179 0.02-0.021 0.037-0.043 0.057-0.063-0.8 1.245-1.68 2.444-2.688 3.545-4.063 4.505-9.818 7.508-15.912 8.372 6.115-0.76 12.007-3.403 16.627-7.659 5.572-5.079 9.304-12.42 9.773-20.384 0.059-0.911 0.07-1.833 0.044-2.761 0.05-1.111 0.047-2.222-0.022-3.322-0.473-7.922-4.215-15.297-9.789-20.365-4.624-4.254-10.518-6.895-16.633-7.655 6.094 0.864 11.851 3.871 15.91 8.378 2.457 2.688 4.32 5.867 5.467 9.242 1.146 3.377 1.565 6.936 1.314 10.399-0.084 1.231-0.288 2.436-0.545 3.625-0.12-14.174-11.679-25.672-25.881-25.672-14.222 0-25.795 11.531-25.881 25.734-0.264-1.214-0.474-2.446-0.561-3.71-0.247-3.418 0.172-7.015 1.323-10.382 1.147-3.374 3.015-6.555 5.474-9.242 4.309-4.778 10.525-7.878 17.027-8.516 0.124-0.012 0.251-0.019 0.377-0.029 0.746-0.055 1.492-0.1 2.242-0.097 0.246-0.001 0.49 0.009 0.736 0.017-0.016 0-0.03-0.002-0.046-0.002-0.62-6.683-3.267-13.137-7.706-18.012-0.6-0.66-1.23-1.291-1.889-1.888 4.295-2.56 8.9-4.631 13.661-6.258 7.612 4.177 20.037 6.366 31.992 6.366s24.381-2.188 31.991-6.364c4.76 1.626 9.365 3.698 13.66 6.258-0.659 0.596-1.287 1.226-1.886 1.884-4.44 4.876-7.085 11.331-7.707 18.014-0.005 0-0.013 0.001-0.019 0.001 0.238-0.007 0.476-0.018 0.715-0.017 0.749-0.003 1.496 0.042 2.243 0.097 0.161 0.013 0.324 0.021 0.485 0.037 6.463 0.661 12.631 3.758 16.913 8.513 2.457 2.688 4.32 5.869 5.467 9.242 1.146 3.378 1.563 6.938 1.314 10.399-0.087 1.231-0.29 2.436-0.547 3.625-0.12-14.175-11.678-25.673-25.88-25.673-14.222 0-25.798 11.534-25.878 25.74-0.267-1.217-0.477-2.451-0.563-3.717-0.248-3.417 0.173-7.014 1.322-10.381 1.149-3.375 3.015-6.555 5.476-9.241 4.061-4.504 9.817-7.508 15.909-8.373-6.114 0.76-12.004 3.403-16.624 7.658-5.572 5.08-9.303 12.422-9.774 20.384-0.058 0.911-0.069 1.835-0.044 2.762-0.051 1.11-0.047 2.221 0.023 3.321 0.471 7.921 4.212 15.298 9.787 20.365 4.624 4.256 10.518 6.897 16.633 7.656-6.093-0.863-11.852-3.871-15.908-8.379-1.03-1.126-1.928-2.352-2.739-3.628 0.042 0.046 0.081 0.094 0.122 0.14 2.792 3.034 6.24 5.504 10.063 7.182 3.824 1.688 8.018 2.543 12.195 2.556 4.181-0.011 8.379-0.858 12.201-2.545 3.829-1.671 7.281-4.145 10.075-7.179 0.02-0.021 0.039-0.045 0.06-0.066-0.801 1.246-1.682 2.446-2.69 3.548-4.292 4.761-10.479 7.856-16.956 8.509-0.148 0.015-0.299 0.023-0.449 0.035-0.747 0.055-1.492 0.1-2.24 0.097 0.243 0.001 0.486-0.01 0.729-0.018 1.345 4.436 3.706 8.52 6.931 11.738 2.459 2.471 5.391 4.44 8.576 5.72 1.488 0.602 3.031 1.033 4.596 1.321-1.544 1.501-3.184 2.908-4.904 4.204-7.374 5.586-16.028 9.43-24.992 11.943C158.699 222.51 149.338 223.682 140 223.67zM81.069 154.545c0-12.251 9.929-22.181 22.179-22.181 12.251 0 22.182 9.93 22.182 22.181 0 12.25-9.931 22.184-22.182 22.184C90.998 176.729 81.069 166.795 81.069 154.545zM198.931 154.545c0 12.25-9.928 22.184-22.181 22.184-12.248 0-22.177-9.934-22.177-22.184 0-12.251 9.929-22.181 22.177-22.181C189.003 132.364 198.931 142.294 198.931 154.545zM168.601 265.393v-1.601-12.818c4.948 2.549 9.345 6.171 12.221 10.786C176.809 263.192 172.73 264.397 168.601 265.393zM183.116 260.906c-1.694-2.479-3.806-4.689-6.146-6.509-2.574-1.997-5.41-3.59-8.37-4.833v-4.224c9.991 0.886 19.14 4.943 24.839 11.097C190.049 258.097 186.605 259.581 183.116 260.906zM217.32 172.426c0 18.6-11.471 32.973-28.248 42.187 1.943-1.191 3.836-2.473 5.656-3.866 2.54-1.952 4.913-4.137 7.088-6.514l0.09-0.097c1.109-1.218 2.182-2.469 3.165-3.798 2.933-3.954 5.236-8.413 6.661-13.149 0.715-2.365 1.218-4.794 1.508-7.244 0.304-2.427 0.336-4.972 0.294-7.307l-0.126-14.255c-0.061-4.766-0.049-9.478-0.167-14.285-0.21-4.879-0.998-9.706-2.503-14.345-2.945-9.304-8.923-17.521-16.538-23.453-1.897-1.482-3.88-2.833-5.929-4.067 1.344-1.232 2.816-2.333 4.425-3.228 2.58-1.446 5.476-2.381 8.472-2.691 10.115 9.398 16.152 22.054 16.152 37.867V172.426zM218.85 177.701c0.086-0.757 0.172-1.515 0.219-2.288 1.004-0.269 1.994-0.582 2.93-0.974 2.426-1.002 4.661-2.398 6.582-4.107 3.852-3.401 6.403-8.105 7.01-12.977-1.322 4.733-4.434 8.733-8.332 11.263-1.947 1.273-4.088 2.196-6.292 2.743-0.6 0.146-1.195 0.263-1.791 0.356v-36.639c2.832 0.445 5.608 1.475 8.083 3.099 3.898 2.529 7.01 6.529 8.332 11.261-0.606-4.869-3.158-9.573-7.01-12.976-2.661-2.377-5.941-4.107-9.481-5.073-0.067-1.496-0.185-2.972-0.359-4.424 13.22 1.625 23.471 12.375 23.471 25.372C242.21 165.3 232.016 176.031 218.85 177.701z" fill="#0718c4" data-fill-palette-color="accent"></path><path d="M139.999 236.499c6.982 0 12.883-1.433 12.883-3.128 0-0.279-0.172-0.563-0.507-0.844-2.629 1.545-8.103 2.098-12.376 2.098s-9.745-0.553-12.371-2.098c-0.337 0.279-0.507 0.563-0.507 0.844C127.121 235.066 133.018 236.499 139.999 236.499z" fill="#0718c4" data-fill-palette-color="accent"></path><path d="M139.999 233.636c6.982 0 12.883-1.434 12.883-3.129 0-0.278-0.172-0.563-0.507-0.842-2.631 1.545-8.104 2.098-12.376 2.098-4.271 0-9.742-0.553-12.371-2.098-0.337 0.277-0.507 0.562-0.507 0.842C127.121 232.202 133.018 233.636 139.999 233.636z" fill="#0718c4" data-fill-palette-color="accent"></path><polygon points="132.607,246.836 123.87,251.672 140.002,246.838 123.873,242.006  " fill="#0718c4" data-fill-palette-color="accent"></polygon><path d="M170.635 188.67c-5.543 0-10.15 3.287-11.151 7.636-2.442 1.414-4.932 2.59-7.523 3.451-3.874 1.303-7.907 1.945-11.961 1.952-4.052 0.001-8.084-0.643-11.963-1.945-2.59-0.861-5.079-2.037-7.519-3.451-0.999-4.352-5.607-7.643-11.148-7.643-6.275 0-11.357 4.215-11.357 9.412s5.082 9.409 11.357 9.409c5.826 0 10.624-3.638 11.276-8.322 1.567 1.527 3.421 2.866 5.457 3.958 4.112 2.208 9.012 3.391 13.896 3.387 4.89 0.011 9.788-1.173 13.896-3.376 2.039-1.093 3.894-2.432 5.462-3.96 0.654 4.681 5.448 8.313 11.277 8.313 6.271 0 11.356-4.212 11.356-9.409S176.905 188.67 170.635 188.67z" fill="#0718c4" data-fill-palette-color="accent"></path><path d="M139.999 191.711c7.136 0 8.647-9.495 8.647-9.495 0-0.067-0.023-0.134-0.058-0.199h-17.177c-0.035 0.065-0.059 0.132-0.059 0.199C131.354 182.216 132.865 191.711 139.999 191.711z" fill="#0718c4" data-fill-palette-color="accent"></path><path d="M133.948 172.476c0.63-1.499 1.328-2.979 2.321-4.195 0.961-1.219 2.273-2.127 3.729-2.093 1.457-0.035 2.769 0.875 3.732 2.093 0.991 1.216 1.693 2.695 2.322 4.195 0.616 1.513 1.096 3.091 1.505 4.689 0.445 1.593 0.776 3.217 1.088 4.852-0.119-3.329-0.65-6.655-1.705-9.868-0.523-1.607-1.24-3.178-2.292-4.59-0.534-0.699-1.184-1.343-1.973-1.83-0.785-0.488-1.733-0.776-2.678-0.776-0.938-0.002-1.895 0.288-2.677 0.775-0.792 0.487-1.438 1.131-1.974 1.83-1.052 1.413-1.771 2.982-2.294 4.59-1.052 3.214-1.586 6.54-1.701 9.869 0.313-1.635 0.645-3.259 1.089-4.852C132.852 175.566 133.331 173.988 133.948 172.476z" fill="#0718c4" data-fill-palette-color="accent"></path><path d="M136.27 25.651l0.204 0.243 0.052 0.061 0.079 0.082 0.129 0.124c0.166 0.173 0.359 0.315 0.55 0.463 0.791 0.55 1.75 0.843 2.717 0.857 1.948 0.016 3.813-1.288 4.421-3.091 0.68-1.781 0.019-3.868-1.38-4.875 1.041 1.369 1.153 3.16 0.492 4.508-0.654 1.358-2.077 2.25-3.533 2.223-0.728 0.005-1.448-0.204-2.066-0.594-0.15-0.104-0.307-0.199-0.441-0.325l-0.107-0.088-0.026-0.022c0.004 0.005-0.028-0.027 0.005 0.008l-0.014-0.014-0.055-0.057-0.222-0.229c-0.213-0.26-0.437-0.567-0.604-0.904-0.661-1.347-0.552-3.137 0.487-4.507-1.398 1.007-2.061 3.094-1.379 4.876C135.733 24.834 135.961 25.25 136.27 25.651z" fill="#0718c4" data-fill-palette-color="accent"></path><polygon points="169.846,16.561 164.605,12.003 179.254,5.057 159.033,10.59 164.003,14.822 151.181,19.433  " fill="#0718c4" data-fill-palette-color="accent"></polygon><polygon points="110.157,16.561 128.82,19.433 115.998,14.822 120.971,10.59 100.746,5.057 115.397,12.003  " fill="#0718c4" data-fill-palette-color="accent"></polygon><path d="M187.771 145.084l2.87-1.656c-2.883-4.233-7.563-6.941-12.652-7.321v3.316C181.901 139.788 185.491 141.865 187.771 145.084z" fill="#0718c4" data-fill-palette-color="accent"></path><path d="M175.514 136.106c-5.087 0.38-9.768 3.088-12.651 7.321l2.87 1.656c2.277-3.219 5.869-5.296 9.781-5.661V136.106z" fill="#0718c4" data-fill-palette-color="accent"></path><path d="M164.493 147.225l-2.868-1.657c-1.106 2.281-1.684 4.781-1.684 7.305s0.577 5.026 1.684 7.308l2.868-1.656c-0.819-1.771-1.248-3.703-1.248-5.651S163.674 148.994 164.493 147.225z" fill="#0718c4" data-fill-palette-color="accent"></path><path d="M191.88 145.567l-2.87 1.658c0.821 1.771 1.248 3.701 1.248 5.646 0 1.696-0.344 3.374-0.97 4.954l-10.763-8.097c-0.51-0.379-1.124-0.67-1.788-0.804-2.403-0.485-4.745 1.068-5.23 3.471s1.067 4.744 3.47 5.23l19.21 3.885-2.181-1.64c1.014-2.2 1.557-4.587 1.557-7C193.563 150.348 192.984 147.848 191.88 145.567z" fill="#0718c4" data-fill-palette-color="accent"></path><path d="M114.268 145.084l2.871-1.656c-2.885-4.233-7.565-6.941-12.653-7.321v3.316C108.397 139.788 111.988 141.865 114.268 145.084z" fill="#0718c4" data-fill-palette-color="accent"></path><path d="M102.012 139.423v-3.316c-5.088 0.38-9.768 3.088-12.652 7.321l2.868 1.656C94.507 141.865 98.098 139.788 102.012 139.423z" fill="#0718c4" data-fill-palette-color="accent"></path><path d="M90.99 158.523c-0.818-1.771-1.247-3.702-1.247-5.651 0-1.95 0.429-3.878 1.247-5.647l-2.869-1.657c-1.104 2.28-1.684 4.78-1.684 7.305 0 2.523 0.579 5.026 1.684 7.308L90.99 158.523z" fill="#0718c4" data-fill-palette-color="accent"></path><path d="M98.004 152.396c-0.488 2.402 1.068 4.744 3.47 5.23l19.21 3.885-2.18-1.64c1.013-2.198 1.557-4.587 1.557-7 0-2.524-0.579-5.024-1.683-7.305l-2.87 1.657c0.819 1.77 1.247 3.699 1.247 5.647 0 1.698-0.345 3.376-0.97 4.954l-10.763-8.097c-0.511-0.379-1.125-0.669-1.789-0.804C100.83 148.441 98.489 149.994 98.004 152.396z" fill="#0718c4" data-fill-palette-color="accent"></path></g></svg></g></svg></g></svg></g></svg></g><g><path d="M0 123.6c0-68.262 55.338-123.6 123.6-123.6 52.613 0 97.548 32.874 115.386 79.201h-1.031c-17.789-45.785-62.282-78.24-114.355-78.239-67.731 0-122.638 54.907-122.638 122.638 0 67.731 54.907 122.638 122.638 122.638 52.073 0 96.566-32.455 114.355-78.239l1.031 0c-17.838 46.328-62.773 79.201-115.386 79.201-68.262 0-123.6-55.338-123.6-123.6z" fill="#0718c4" stroke="transparent" data-fill-palette-color="tertiary"></path></g></svg></g><defs></defs></svg><rect width="395.52" height="247.2" fill="none" stroke="none" visibility="hidden"></rect></g></svg></g></svg>